# xmcd
#
# Track frame offsets: 
#        150
#        15126
#        25909
#        38848
#        52024
#        70944
#        93792
#        105174
#        121035
#        140001
#        148661
#        163911
#
# Disc length: 2385 seconds
#
# Revision: 0
# Processed by: cddbd v1.5.2PL0 Copyright (c) Steve Scherf et al.
# Submitted via: ExactAudioCopyFreeDBPlugin 1.0
#
DISCID=95094f0c
DTITLE=RJ Chesney - Amateur Revolution
DYEAR=2019
DGENRE=Country
TTITLE0=Splendors of This Earth
TTITLE1=Pull Down the Moon
TTITLE2=A Place Just for Me
TTITLE3=Amateur Revolution
TTITLE4=Do You Remember Me?
TTITLE5=Proud of You Child
TTITLE6=No Reason Left To Stay
TTITLE7=Da Mayor Is on the Scene
TTITLE8=Death, An Old Widows Peek
TTITLE9=Baby You're Not Dead
TTITLE10=Never Give Up on Love
TTITLE11=Rise Up and Sing
EXTD=
EXTT0=
EXTT1=
EXTT2=
EXTT3=
EXTT4=
EXTT5=
EXTT6=
EXTT7=
EXTT8=
EXTT9=
EXTT10=
EXTT11=
PLAYORDER=
